<?xml version="1.0" encoding="UTF-8" standalone="no"?>
<svg width="156px" height="147px" viewBox="0 0 156 147" version="1.1" xmlns="http://www.w3.org/2000/svg" xmlns:xlink="http://www.w3.org/1999/xlink">
    <!-- Generator: Sketch 49.1 (51147) - http://www.bohemiancoding.com/sketch -->
    <title>Group 16</title>
    <desc>Created with Sketch.</desc>
    <defs>
        <rect id="path-1" x="12.513369" y="11.6931818" width="132.641711" height="125.284091" rx="11"></rect>
    </defs>
    <g id="Page-1" stroke="none" stroke-width="1" fill="none" fill-rule="evenodd">
        <g id="Desktop-HD" transform="translate(-577.000000, -2668.000000)">
            <g id="Group-12-Copy" transform="translate(573.000000, 2668.000000)">
                <g id="Group-16" transform="translate(4.000000, 0.000000)">
                    <g id="Group-11">
                        <g id="Group-10">
                            <rect id="Rectangle-8" fill="#FFFFFF" x="0" y="0" width="156" height="147" rx="11"></rect>
                            <g id="Rectangle-8-Copy">
                                <use fill="#FAFAFA" fill-rule="evenodd" xlink:href="#path-1"></use>
                                <rect stroke="#F2F2F2" stroke-width="1" x="13.013369" y="12.1931818" width="131.641711" height="124.284091" rx="11"></rect>
                            </g>
                        </g>
                    </g>
                    <g id="chat-(1)" transform="translate(47.000000, 39.000000)" fill-rule="nonzero">
                        <path d="M43,7.89176938 L43,62.1082306 C43,66.4591979 39.5153034,70 35.2332788,70 L7.76672123,70 C3.48469669,70 0,66.4591979 0,62.1082306 L0,7.89176937 C0,3.54080207 3.48469669,0 7.76672123,0 L35.2332788,0 C39.5153034,0 43,3.54080207 43,7.89176938 Z" id="Shape" fill="#F7ECD9"></path>
                        <path d="M44,7.89176937 L44,62.1082306 C44,66.4591979 40.4345255,70 36.0532401,70 L22,70 L22,0 L36.0532401,0 C40.4345255,0 44,3.54080207 44,7.89176937 Z" id="Shape" fill="#EACD9D"></path>
                        <path d="M35.2332788,3.88578059e-15 L7.76672123,3.88578059e-15 C3.48469669,3.88578059e-15 0,3.54080207 0,7.89176938 L0,62.1082306 C0,66.4591979 3.48469669,70 7.76672123,70 L35.2332788,70 C39.5153034,70 43,66.4591979 43,62.1082306 L43,7.89176937 C43,3.54080207 39.5153034,0 35.2332788,3.88578059e-15 Z M38.9618515,62.1082306 C38.9618515,64.19693 37.2888818,65.8968353 35.2332788,65.8968353 L7.76672123,65.8968353 C5.71111811,65.8968353 4.03814847,64.19693 4.03814847,62.1082306 L4.03814847,7.89176937 C4.03814847,5.80307 5.71111811,4.10316471 7.76672123,4.10316471 L11.4548232,4.10316471 L11.4548232,6.29974365 C11.4548232,8.47015381 13.1924412,10.2357484 15.3284604,10.2357484 L27.6715396,10.2357484 C29.8075588,10.2357484 31.5451767,8.47015381 31.5451767,6.29974365 L31.5451767,4.10316471 L35.2332788,4.10316471 C37.2888818,4.10316471 38.9618515,5.80307 38.9618515,7.89176937 L38.9618515,62.1082306 Z" id="Shape" fill="#F9AF2B"></path>
                        <path d="M28,59.9997396 C28,61.1050371 27.0926984,62 25.9745189,62 L18.0254811,62 C16.9073017,62 16,61.1050371 16,59.9997396 C16,58.8960041 16.9073017,58 18.0254811,58 L25.9745189,58 C27.0926984,58 28,58.8960041 28,59.9997396 Z" id="Shape" fill="#F9AF2B"></path>
                        <path d="M44,7.89176937 L44,62.1082306 C44,66.4591979 40.4345255,70 36.0532401,70 L22,70 L22,65.8968353 L36.0532401,65.8968353 C38.1564936,65.8968353 39.8682441,64.19693 39.8682441,62.1082306 L39.8682441,7.89176937 C39.8682441,5.80307 38.1564936,4.10316471 36.0532401,4.10316471 L32.279645,4.10316471 L32.279645,6.29974365 C32.279645,8.47015381 30.5017478,10.2357484 28.316214,10.2357484 L22,10.2357484 L22,0 L36.0532401,0 C40.4345255,0 44,3.54080207 44,7.89176937 Z" id="Shape" fill="#F48603"></path>
                        <path d="M28,59.9997396 C28,61.1050371 27.0929375,62 25.9750526,62 L22,62 L22,58 L25.9750526,58 C27.0929375,58 28,58.8960041 28,59.9997396 Z" id="Shape" fill="#F48603"></path>
                        <path d="M63,28.3444022 L63,35.9833257 C63,41.1360258 58.7871872,45.3277277 53.6085363,45.3277277 L35.4226917,45.3277277 L28.7995712,48.6544246 C28.4072329,48.8837415 27.9666562,49 27.5244717,49 C27.1278456,49 26.7285396,48.9056066 26.3603204,48.7157536 C25.5220457,48.2816511 25,47.4278451 25,46.4881786 L25,28.3444022 C25,23.1917019 29.2138847,19 34.3914637,19 L53.6085363,19 C58.7871872,19 63,23.1917019 63,28.3444022 Z" id="Shape" fill="#52ADFF"></path>
                        <path d="M62,28.5830093 L62,36.4169908 C62,41.701264 57.9008564,46 52.8619346,46 L43,46 L43,19 L52.8619346,19 C57.9008564,19 62,23.298736 62,28.5830093 Z" id="Shape" fill="#1D78DB"></path>
                        <path d="M55,27.9997396 C55,29.1050371 54.0831336,30 52.953699,30 L35.046301,30 C33.9152681,30 33,29.1050371 33,27.9997396 C33,26.8960041 33.9152681,26 35.046301,26 L52.953699,26 C54.0831336,26 55,26.8960041 55,27.9997396 Z" id="Shape" fill="#FFFFFF"></path>
                        <path d="M55,34.9999999 C55,36.1038791 54.0864435,37 52.9610862,37 L44.0389138,37 C43.8579012,37 43.6843201,36.97761 43.517109,36.9333507 C42.6444262,36.7084093 42,35.9268419 42,34.9999999 C42,34.0721167 42.6444262,33.2915907 43.517109,33.0666493 C43.6843201,33.02239 43.8579012,33 44.0389138,33 L52.9610862,33 C54.0864435,33 55,33.8945586 55,34.9999999 Z" id="Shape" fill="#FFFFFF"></path>
                        <g id="Group" transform="translate(43.000000, 26.000000)" fill="#F7ECD9">
                            <path d="M10.9459099,8.89867278 C10.9459099,9.99618784 10.0759191,10.8871424 9.00422794,10.8871424 L0.507536765,10.8871424 C0.335156282,10.8871424 0.169852941,10.8648814 0.0106157765,10.8208773 L0.0106157765,6.97646837 C0.169852941,6.93246427 0.335156282,6.91020331 0.507536765,6.91020331 L9.00422794,6.91020331 C10.0759191,6.91020331 10.9459099,7.7996046 10.9459099,8.89867278 Z" id="Shape"></path>
                            <path d="M9.00422794,4.09549137 L0.0106157765,4.09549137 L0.0106157765,0.118034639 L9.00422794,0.118034639 C10.0759191,0.118034639 10.9459099,1.00898905 10.9459099,2.10650411 C10.9459099,3.20557229 10.0759191,4.09549137 9.00422794,4.09549137 Z" id="Shape"></path>
                        </g>
                    </g>
                </g>
            </g>
        </g>
    </g>
</svg>