<?xml version="1.0" encoding="UTF-8" standalone="no"?>
<svg width="136px" height="158px" viewBox="0 0 136 158" version="1.1" xmlns="http://www.w3.org/2000/svg" xmlns:xlink="http://www.w3.org/1999/xlink">
    <!-- Generator: Sketch 49.1 (51147) - http://www.bohemiancoding.com/sketch -->
    <title>Group 6</title>
    <desc>Created with Sketch.</desc>
    <defs></defs>
    <g id="Page-1" stroke="none" stroke-width="1" fill="none" fill-rule="evenodd">
        <g id="Desktop-HD" transform="translate(-252.000000, -1083.000000)">
            <g id="Group-6" transform="translate(252.000000, 1083.000000)">
                <path d="M136,68.0003598 C136,105.555429 105.555429,136 68,136 C30.4445714,136 0,105.555429 0,68.0003598 C0,30.4449312 30.4445714,0 68,0 C105.555429,0 136,30.4449312 136,68.0003598" id="Fill-4" fill="#C7F2FE" opacity="0.227961754"></path>
                <path d="M65.5,158 C38.7143481,158 17,147.926532 17,135.5 C17,123.073831 38.7143481,113 65.5,113 C92.2856519,113 114,123.073831 114,135.5 C114,147.926532 92.2856519,158 65.5,158 Z" id="Fill-5" fill="#F1F1F1"></path>
                <polyline id="Fill-6" fill="#2364AA" points="75.1205767 155 110 127.969698 110 78 71 97.1532021 75.1205767 155"></polyline>
                <polyline id="Fill-7" fill="#247BA0" points="23 78 23 133.357541 75 155 75 96.1089367 23 78"></polyline>
                <polyline id="Fill-8" fill="#60A8C7" points="77.0454405 102 111 79.7066602 111 69 86.2924669 78.6798506 73 89.0932916 77.0454405 102"></polyline>
                <polyline id="Fill-9" fill="#2C95C2" points="78 88.3154114 78 101 21 78.6578833 21 69 63.1623347 78.0811819 78 88.3154114"></polyline>
                <polyline id="Fill-10" fill="#247BA0" points="59.1235874 56 21 69.3465719 77.6740804 89 112 68.9069286 59.1235874 56"></polyline>
                <polyline id="Fill-11" fill="#8F5E2F" points="51.3583544 64 49 64.9997759 83.1990454 75 86 73.714272 51.3583544 64"></polyline>
                <polyline id="Fill-12" fill="#2CABE1" points="23 80 75 100.993956 75 108 23 80"></polyline>
                <polyline id="Fill-13" fill="#4E8FD6" points="75 108 110 85.7447564 110 81 77.2152129 101.904418 75 101.032339 75 108"></polyline>
                <polyline id="Fill-14" fill="#F9CE8C" points="23 80 25 134 23 133.037834 23 80"></polyline>
                <polyline id="Fill-15" fill="#247BA0" points="21 68.919927 24.207163 70 59 56 21 68.919927"></polyline>
                <path d="M37.1053337,117.01797 C37.6948195,113.262794 38.2843053,109.528694 38.873408,105.811602 C39.5823997,105.993519 40.2910083,106.200579 41,106.427605 C40.2419803,110.927087 39.4839605,115.448753 38.7263239,120 C37.5753136,119.710486 36.4246864,119.488267 35.2736761,119.357745 C34.5156564,114.529926 33.7580197,109.74167 33,105 C33.7790865,104.999632 34.5577899,105.048809 35.3368764,105.139398 C35.9263622,109.076121 36.5158479,113.036508 37.1053337,117.01797" id="Fill-16" fill="#FFFFFE"></path>
                <path d="M43.3054965,117.790414 C43.3054965,118.788197 43.7665196,119.340062 44.4998093,119.630689 C45.2334804,119.922042 45.6945035,119.732281 45.6945035,118.734861 C45.6945035,116.222262 45.6945035,113.7093 45.6945035,111.1967 C45.6945035,110.200006 45.2334804,109.632176 44.4998093,109.340824 C43.7665196,109.05056 43.3054965,109.256284 43.3054965,110.252253 C43.3054965,112.764853 43.3054965,115.277815 43.3054965,117.790414 Z M41,109.561787 C41,107.331833 42.23664,106.449067 44.4998093,107.346709 C46.76336,108.25197 48,110.057051 48,112.285554 C48,114.705269 48,117.124983 48,119.544698 C48,121.782998 46.7637414,122.529702 44.4998093,121.624804 C42.23664,120.727162 41,119.058143 41,116.820569 C41,114.400854 41,111.981502 41,109.561787 Z" id="Fill-17" fill="#FFFFFE"></path>
                <path d="M48,109 C50.3332085,109.990676 52.6667915,110.947912 55,111.66336 C55,112.336549 55,113.009738 55,113.682927 C54.210777,113.441137 53.4215539,113.171421 52.6323309,112.882229 C52.6323309,116.921363 52.6323309,120.960865 52.6323309,125 C51.8775685,124.723302 51.1224315,124.428598 50.3676691,124.123237 C50.3676691,120.083735 50.3676691,116.044601 50.3676691,112.005099 C49.5784461,111.685775 48.789223,111.354692 48,111.019935 C48,110.346746 48,109.673189 48,109" id="Fill-18" fill="#FFFFFE"></path>
                <path d="M58.1997817,118.46334 C59.2063319,118.660242 60.213246,118.790167 61.2197962,118.83555 C61.2197962,119.506039 61.2197962,120.176528 61.2197962,120.847017 C60.213246,120.802001 59.2063319,120.671709 58.1997817,120.474808 C58.1997817,121.849457 58.1997817,123.224106 58.1997817,124.598756 C59.4665211,124.846529 60.7332606,124.988532 62,124.988532 C62,125.659022 62,126.329511 62,127 C60,127 58,126.645724 56,126.081005 C56,121.387215 56,116.693424 56,112 C58,112.564719 60,112.918995 62,112.918995 C62,113.589484 62,114.259973 62,114.930462 C60.7332606,114.930462 59.4665211,114.788459 58.1997817,114.540686 C58.1997817,115.848359 58.1997817,117.156033 58.1997817,118.46334" id="Fill-19" fill="#FFFFFE"></path>
                <path d="M74,32.3979008 C74,32.3979008 84.9171196,25.0501644 89.0109502,23.3097433 C93.1047808,21.5693222 108.115731,27.757132 111.429716,27.1769916 C114.743702,26.5968513 120.592184,23.6965036 120.592184,23.6965036 L128,42.8397192 L88.8159889,44 L75.7546519,38.1989504 L74,32.3979008" id="Fill-20" fill="#F4BC7D"></path>
                <path d="M89.946745,28.5888574 C89.946745,28.5888574 89.6735482,26.9914034 96.2547437,29.0586968 C102.835939,31.1259903 107,33.0053479 107,33.0053479 C107,33.0053479 98.8000765,37.5631662 94.2890412,37.9788801 C89.778371,38.394594 86,32.5355085 86,32.5355085" id="Fill-21" fill="#F0A963"></path>
                <path d="M80.9519139,74 C82.3259937,69.1555859 91.0225009,39.05969 97,31.8771757 C97,31.8771757 84.0873207,18.8161637 62.0998843,24.3794402 C62.0998843,24.3794402 52.940192,43.1018536 53.0002945,65.5770885 L80.9519139,74" id="Fill-22" fill="#FFFFFE"></path>
                <path d="M65.5601704,66.1131089 C64.0192317,66.6920161 62.5045754,67.3260059 61,67.9819568 L80.9457951,74 C82.3203988,69.1476917 91.0202218,39.0027531 97,31.8085345 C97,31.8085345 89.1800962,23.891762 75.3505315,23 C77.9726475,24.1462939 80.77766,26.6142101 81.4293186,28.6447056 C82.4006861,31.6720881 79.4343791,33.4383312 77.7040634,35.4763871 C76.0745567,37.3949174 74.6041844,39.3465693 72.3806243,40.574587 C70.6341071,41.5387124 69.7790301,41.7082804 70.7352762,44.1340745 C71.9082617,47.1081745 75.1024692,48.2973105 76.0425138,51.644748 C76.9415147,54.8467387 75.7699693,58.6110758 73.8488364,61.2557603 C71.8351752,64.0268107 68.6251263,64.9606946 65.5601704,66.1131089" id="Fill-23" fill="#E3ECED"></path>
                <path d="M127,42.2940966 C127,42.2940966 111.659377,52.348395 105.169016,52.9398668 C98.6790159,53.5313386 94.9419342,49.5885544 87.6651798,48.6027681 C80.3880651,47.6169817 70.7514088,48.4056108 69.1779007,42.8855684 C67.6043927,37.3655261 76.8480322,35.9854252 81.9615732,37.3655261 C87.0751143,38.745627 96.1220653,37.5626834 99.2687212,35" id="Fill-24" fill="#F4BC7D"></path>
                <path d="M127,42.3782237 C127,42.3782237 111.659377,52.3535153 105.169016,52.9403393 C98.6790159,53.5271633 94.9419342,49.6153615 87.6651798,48.6373215 C80.3880651,47.6592815 70.7514088,48.4417135 69.1779007,42.9650477 C67.6043927,37.4883819 76.8480322,36.1191259 81.9615732,37.4883819 C87.0751143,38.8576379 107.998665,33.5425458 111.145681,31 L119.106162,32.4330257" id="Fill-25" fill="#F4BC7D"></path>
                <path d="M123.223978,38 C118.382989,40.2360305 113.847872,42.9661611 108.809093,44.8331889 C100.892092,47.7663409 94.0126779,45.4569292 86.02002,44.7720379 C80.2599743,44.2786365 73.6021281,45.4251307 69,42.2124312 C69.0144109,42.5290187 69.0684519,42.8613308 69.1718503,43.2121629 C70.745523,48.5539659 80.3831877,47.7908013 87.6610638,48.7447571 C94.9385797,49.6983634 98.6760524,53.5141866 105.166732,52.9418131 C111.657772,52.3694397 127,42.6397894 127,42.6397894 L123.223978,38" id="Fill-26" fill="#F0A963"></path>
                <path d="M16.8478428,64.5628362 C16.2142727,63.873216 15.4456267,63.2924654 14.8770932,62.5489159 C14.357873,61.8694073 13.2275955,61.8417686 12.581161,62.3500518 C11.8496788,62.9250724 11.7313981,64.3026276 12.675857,64.7836091 C13.2761942,65.0893205 17.6897441,68.1673323 17.9841952,66.5157491 C18.1217724,65.745235 17.3291845,65.086287 16.8478428,64.5628362" id="Fill-32" fill="#FFFFFE"></path>
                <path d="M21.5811935,60.2697863 C21.5422292,60.2386685 21.5035624,60.2071971 21.4645981,60.1760794 C21.1561557,59.9274909 20.7638361,59.9423426 20.4714553,60.2192199 C20.435168,60.2538738 20.3985832,60.2885276 20.3619984,60.3228279 C20.094305,60.5763669 19.9500479,61.0300496 20.0157815,61.4306907 C20.1175051,62.0516314 20.2189311,62.6729256 20.3206547,63.2938663 C20.4107781,63.8444384 20.4824605,64.3851094 20.790308,64.8260621 C20.9595498,65.0686392 21.289705,65.0559092 21.4431826,64.7977733 C21.7195018,64.3320678 21.7578712,63.7942257 21.8114099,63.2401174 C21.8723845,62.6131654 21.9330617,61.9862133 21.9940363,61.3592613 C22.0338929,60.9476583 21.8714922,60.503523 21.5811935,60.2697863" id="Fill-33" fill="#FFFFFE"></path>
                <path d="M17.8622965,70.4101054 C17.2357585,69.7294365 16.3792891,70.0704981 15.592435,70.2068501 C14.687101,70.3642911 13.6679727,70.4548288 13.1502087,71.3849309 C12.84196,71.9383379 13.025035,72.5215607 13.5448071,72.8058999 C14.5070383,73.3324002 15.5656599,72.6655483 16.4663083,72.2521292 C16.9010694,72.05251 17.5296156,71.8808883 17.8187869,71.4420169 C17.9908171,71.1802211 18.1015992,70.6700831 17.8622965,70.4101054" id="Fill-34" fill="#FFFFFE"></path>
                <path d="M118.576581,68.8743239 C119.550021,68.7680381 120.506466,68.475846 121.489669,68.4604477 C122.388257,68.4461761 123.067351,67.4899794 122.994668,66.6085208 C122.912584,65.6113872 121.769189,64.6307785 120.799004,65.1381712 C120.182468,65.4604087 114.918225,67.3006931 116.200476,68.6076705 C116.79857,69.2179689 117.837461,68.9546955 118.576581,68.8743239" id="Fill-35" fill="#FFFFFE"></path>
                <path d="M119.101563,75.9187856 C119.16003,75.8958618 119.218496,75.8725287 119.27736,75.8496049 C119.742707,75.6662147 120.029074,75.21347 119.997653,74.7001411 C119.993676,74.6358726 119.989698,74.5720135 119.985721,74.5077451 C119.956687,74.0373982 119.64924,73.5744198 119.229235,73.3828425 C118.578545,73.0860614 117.927856,72.7892803 117.277167,72.4924992 C116.700853,72.2292851 116.14721,71.952153 115.504873,72.0070063 C115.151687,72.0372985 114.910662,72.4179969 115.031572,72.762263 C115.249132,73.3828425 115.716069,73.7823712 116.18579,74.2105547 C116.717558,74.6944101 117.249325,75.178675 117.781093,75.6629398 C118.129904,75.9805979 118.66366,76.0915327 119.101563,75.9187856" id="Fill-36" fill="#FFFFFE"></path>
                <path d="M112.83429,65.9934496 C113.729867,65.8366873 113.969054,64.9445308 114.325429,64.2189552 C114.735758,63.3843571 115.26465,62.4908462 114.848135,61.5655089 C114.600356,61.0149788 114.040879,60.855508 113.514736,61.1351745 C112.541492,61.6528623 112.435988,62.8863069 112.227043,63.8536281 C112.126007,64.320529 111.889569,64.9336962 112.060025,65.4073687 C112.161748,65.6897439 112.492005,66.0533781 112.83429,65.9934496" id="Fill-37" fill="#FFFFFE"></path>
            </g>
        </g>
    </g>
</svg>