<?xml version="1.0" encoding="UTF-8" standalone="no"?>
<svg width="115px" height="113px" viewBox="0 0 115 113" version="1.1" xmlns="http://www.w3.org/2000/svg" xmlns:xlink="http://www.w3.org/1999/xlink">
    <!-- Generator: Sketch 49.1 (51147) - http://www.bohemiancoding.com/sketch -->
    <title>Group 5</title>
    <desc>Created with Sketch.</desc>
    <defs></defs>
    <g id="Page-1" stroke="none" stroke-width="1" fill="none" fill-rule="evenodd">
        <g id="Desktop-HD" transform="translate(-1062.000000, -1128.000000)">
            <g id="Group-5" transform="translate(1062.000000, 1128.000000)">
                <path d="M59,5 C26.9673203,5 1,30.9673203 1,63 L59,63 L59,5" id="Fill-4" fill="#83BD42"></path>
                <path d="M58.6193548,5.38064516 L58.6193548,5 C26.2443419,5 0.000380645161,31.2443419 0,63.6193548 C0,63.7194645 0.0407290323,63.8172903 0.111529032,63.888471 C0.182329032,63.959271 0.280535484,64 0.380645161,64 L58.6193548,64 C58.7194645,64 58.817671,63.959271 58.888471,63.888471 C58.959271,63.8172903 59,63.7194645 59,63.6193548 L59,5.38064516 C59,5.28015484 58.959271,5.18232903 58.888471,5.11152903 C58.817671,5.04034839 58.7194645,5 58.6193548,5 L58.6193548,5.38064516 L58.2387097,5.38064516 L58.2387097,63.2387097 L0.380645161,63.2387097 L0.380645161,63.6193548 L0.761290323,63.6193548 C0.761670968,47.6410129 7.23682581,33.1787806 17.7076129,22.7072323 C28.1787806,12.2364452 42.6410129,5.76129032 58.6193548,5.76129032 L58.6193548,5.38064516 L58.2387097,5.38064516 L58.6193548,5.38064516" id="Fill-5" fill="#F1F2EF"></path>
                <path d="M59,113 L59,1 C89.9280546,1 115,26.0719454 115,57 C115,87.9280546 89.9280546,113 59,113" id="Fill-6" fill="#139B8D"></path>
                <path d="M59.7542088,112.616949 L59.7542088,0.383050847 L59.3771044,0.383050847 L59.3771044,0.766101695 C74.5299125,0.766101695 88.2448215,7.00370169 98.1751111,17.0901966 C108.105024,27.1770746 114.245414,41.1082508 114.245791,56.5 C114.245414,71.8917492 108.105024,85.8225424 98.1751111,95.9098034 C88.2448215,105.996298 74.5299125,112.233515 59.3771044,112.233898 L59.3771044,113 C90.0971582,112.999617 114.999623,87.7040881 115,56.5 C114.999623,25.2955288 90.0971582,0 59.3771044,0 C59.2779259,0 59.180633,0.0406033898 59.1104916,0.112233898 C59.0403502,0.183481356 59,0.281925424 59,0.383050847 L59,112.616949 L59.7542088,112.616949" id="Fill-7" fill="#F1F2EF"></path>
                <path d="M4,63.0937684 C4.03664046,77.1594112 9.40523098,91.2679195 20.1076799,102 L59,63 L4,63.0937684" id="Fill-8" fill="#DE5430"></path>
                <path d="M4.38329349,63.4673244 L4.00000276,63.4680751 C4.03679867,77.3579307 9.46611178,91.2917036 20.2883254,101.890019 C20.3596175,101.959836 20.4581232,102 20.5593119,102 C20.6601174,102 20.7590064,101.959836 20.8302985,101.890019 L59.8876233,63.6407411 C59.9972444,63.5337632 60.0302074,63.3716073 59.9707974,63.2315977 C59.9113873,63.0912127 59.7711029,63 59.6158702,63 L4.38252691,63.0919634 C4.28018828,63.0919634 4.18359902,63.1313763 4.11154037,63.2023195 C4.03909842,63.2732628 3.99961947,63.3678537 4.00000276,63.4680751 L4.38329349,63.4673244 L4.38367678,63.8423099 L58.6898398,63.7522233 L20.2883254,101.359259 L20.5593119,101.624639 L20.8302985,101.359259 C10.1568017,90.9062079 4.80338012,77.166872 4.76658421,63.4661983 L4.38329349,63.4673244 L4.38367678,63.8423099 L4.38329349,63.4673244" id="Fill-9" fill="#F1F2EF"></path>
                <path d="M59,63 L23,98.1583054 C27.50345,102.540432 33.2566705,106.43848 39.4767571,109 L59,63" id="Fill-10" fill="#E98A2F"></path>
                <path d="M58.6195252,63.3815096 L58.3505019,63.1119127 L23.1111128,98.4512276 C23.0391956,98.5232981 22.9996222,98.6193921 23.0000027,98.7212059 C23.0000027,98.8230197 23.0395762,98.9191137 23.1118738,98.9908028 C27.5551342,103.42981 33.2228882,107.373094 39.3613379,109.969919 C39.4549443,110.009576 39.5595856,110.009958 39.6535726,109.971444 C39.7475595,109.932549 39.8217597,109.858572 39.8605721,109.764384 L58.97112,63.5271759 C59.0403735,63.3593928 58.9817744,63.1652982 58.8307104,63.0642471 C58.6800269,62.9631959 58.478735,62.9830248 58.3505019,63.1119127 L58.6195252,63.3815096 L58.2679304,63.2354621 L39.157763,109.472671 L39.5089773,109.618337 L39.6569972,109.267136 C33.6182421,106.713783 28.0224052,102.821215 23.6491594,98.4508463 L23.3805166,98.7208246 L23.6495399,98.9904215 L58.8885485,63.6507252 L58.6195252,63.3815096 L58.2679304,63.2354621 L58.6195252,63.3815096" id="Fill-11" fill="#F1F2EF"></path>
                <path d="M59,63 L42,104.629041 C47.1214487,106.744706 53.0700988,107.991614 58.9388786,108 L59,63" id="Fill-12" fill="#EFA848"></path>
                <path d="M58.6197409,63.3832984 L58.2683823,63.2361576 L41.0293749,105.081228 C40.9902084,105.175873 40.9902084,105.28163 41.0293749,105.375892 C41.0685415,105.470538 41.1430722,105.544874 41.2373762,105.583192 C46.477715,107.728612 52.5531009,108.991187 58.5573786,109 C58.6573865,109 58.7554931,108.959383 58.8262211,108.888112 C58.8973294,108.81684 58.9380171,108.71798 58.9380171,108.617204 L58.9999992,63.3836816 C59.0003794,63.2009052 58.8722324,63.0434186 58.6942715,63.0073997 C58.5166909,62.9717641 58.3379696,63.0675589 58.2683823,63.2361576 L58.6197409,63.3832984 L58.2394827,63.382532 L58.1775006,108.616055 L58.5577588,108.616821 L58.5581391,108.233642 C52.6595732,108.225595 46.670506,106.981029 41.5237107,104.873161 L41.3803533,105.228368 L41.7317119,105.375126 L58.9710995,63.530056 L58.6197409,63.3832984 L58.2394827,63.382532 L58.6197409,63.3832984" id="Fill-13" fill="#F1F2EF"></path>
                <text id="50%" font-family="LucidaGrande, Lucida Grande" font-size="10" font-weight="normal" letter-spacing="0.00456326874" fill="#F1F2EF">
                    <tspan x="71" y="73">50%</tspan>
                </text>
                <text id="25%" font-family="LucidaGrande, Lucida Grande" font-size="7" font-weight="normal" letter-spacing="-3.75302916e-05" fill="#F1F2EF">
                    <tspan x="23" y="51">25%</tspan>
                </text>
                <text id="15%" font-family="LucidaGrande, Lucida Grande" font-size="7" font-weight="normal" letter-spacing="0.00522448728" fill="#F1F2EF">
                    <tspan x="16" y="85">15%</tspan>
                </text>
                <text id="10%" font-family="LucidaGrande, Lucida Grande" font-size="4" font-weight="normal" letter-spacing="0.00525980629" fill="#F1F2EF">
                    <tspan x="33" y="96">1</tspan>
                    <tspan x="35.5345567" y="96" letter-spacing="0.00262990315">0</tspan>
                    <tspan x="33" y="101" letter-spacing="0.00262990315">%</tspan>
                </text>
                <text id="10%" font-family="LucidaGrande, Lucida Grande" font-size="4" font-weight="normal" letter-spacing="0.00597647065" fill="#F1F2EF">
                    <tspan x="48" y="102">1</tspan>
                    <tspan x="50.5352733" y="102" letter-spacing="0.00298823533">0</tspan>
                    <tspan x="48" y="107" letter-spacing="0.00298823533">%</tspan>
                </text>
            </g>
        </g>
    </g>
</svg>