<?xml version="1.0" encoding="UTF-8" standalone="no"?>
<svg width="161px" height="98px" viewBox="0 0 161 98" version="1.1" xmlns="http://www.w3.org/2000/svg" xmlns:xlink="http://www.w3.org/1999/xlink">
    <!-- Generator: Sketch 49.1 (51147) - http://www.bohemiancoding.com/sketch -->
    <title>Group 8</title>
    <desc>Created with Sketch.</desc>
    <defs></defs>
    <g id="Page-1" stroke="none" stroke-width="1" fill="none" fill-rule="evenodd">
        <g id="Desktop-HD" transform="translate(-640.000000, -1143.000000)">
            <g id="Group-8" transform="translate(640.000000, 1143.000000)">
                <path d="M150.059,84.223 L145.059,84.223 L145.059,21.609 L145.52,21.609 C148.025,21.609 150.059,23.641 150.059,26.147 L150.059,84.223" id="Fill-301" fill="#2364AA"></path>
                <path d="M155.616,97.381 L31.975,97.381 C29.469,97.381 27.437,95.697 27.437,93.621 L27.437,89.148 L32.533,86.098 L32.533,87.842 C32.533,90.35 34.566,92.381 37.072,92.381 L85.273,92.381 C85.957,92.812 86.832,93.07 87.785,93.07 L99.807,93.07 C100.759,93.07 101.633,92.812 102.317,92.381 L140.521,92.381 C143.025,92.381 145.059,90.35 145.059,87.842 L145.059,84.223 L155.616,84.223 C158.124,84.223 160.155,85.904 160.155,87.983 L160.155,93.621 C160.155,95.697 158.124,97.381 155.616,97.381 M27.452,87.681 C27.637,85.744 29.592,84.223 31.975,84.223 L32.533,84.223 L32.533,84.639 L27.452,87.681" id="Fill-302" fill="#2364AA"></path>
                <path d="M27.437,89.148 L27.437,87.983 C27.437,87.881 27.442,87.78 27.452,87.681 L32.533,84.639 L32.533,86.098 L27.437,89.148" id="Fill-303" fill="#32AEB3"></path>
                <path d="M99.807,93.07 L87.785,93.07 C86.832,93.07 85.957,92.812 85.273,92.381 L102.317,92.381 C101.633,92.812 100.759,93.07 99.807,93.07" id="Fill-304" fill="#23A5AC"></path>
                <path d="M145.059,87.842 C145.059,90.35 143.025,92.381 140.521,92.381 L37.072,92.381 C34.566,92.381 32.533,90.35 32.533,87.842 L32.533,21.147 C32.533,18.64 34.566,16.609 37.072,16.609 L140.521,16.609 C143.025,16.609 145.059,18.64 145.059,21.147 L145.059,87.842" id="Fill-305" fill="#247BA0"></path>
                <path d="M42.516,85.121 C41.019,85.121 39.793,83.896 39.793,82.4 L39.793,26.592 C39.793,25.094 41.019,23.869 42.516,23.869 L135.074,23.869 C136.574,23.869 137.799,25.094 137.799,26.592 L137.799,82.4 C137.799,83.896 136.574,85.121 135.074,85.121 L42.516,85.121" id="Fill-306" fill="#385998"></path>
                <path d="M155.155,88.621 C155.155,90.697 153.124,92.381 150.616,92.381 L26.975,92.381 C24.469,92.381 22.437,90.697 22.437,88.621 L22.437,82.982 C22.437,80.904 24.469,79.223 26.975,79.223 L150.616,79.223 C153.124,79.223 155.155,80.904 155.155,82.982 L155.155,88.621" id="Fill-307" fill="#247BA0"></path>
                <path d="M98.777,85.006 C98.777,86.701 96.999,88.07 94.807,88.07 L82.785,88.07 C80.591,88.07 78.813,86.701 78.813,85.006 C78.813,83.318 80.591,81.945 82.785,81.945 L94.807,81.945 C96.999,81.945 98.777,83.318 98.777,85.006" id="Fill-308" fill="#487DB3"></path>
                <path d="M91.05,20.225 C91.05,21.471 90.041,22.479 88.796,22.479 C87.551,22.479 86.542,21.471 86.542,20.225 C86.542,18.98 87.551,17.971 88.796,17.971 C90.041,17.971 91.05,18.98 91.05,20.225" id="Fill-309" fill="#385998"></path>
                <path d="M100.301,40.289 C100.301,46.643 95.149,51.792 88.796,51.792 C82.441,51.792 77.293,46.643 77.293,40.289 C77.293,33.937 82.441,28.785 88.796,28.785 C95.149,28.785 100.301,33.937 100.301,40.289" id="Fill-310" fill="#487DB3"></path>
                <path d="M94.515,43.251 C94.515,41.362 92.985,39.832 91.095,39.832 L90.161,39.832 C91.542,39.287 92.521,37.944 92.521,36.368 C92.521,34.311 90.854,32.643 88.796,32.643 C86.738,32.643 85.071,34.311 85.071,36.368 C85.071,37.944 86.049,39.287 87.431,39.832 L86.499,39.832 C84.607,39.832 83.078,41.362 83.078,43.251 L82.293,47.936 L95.298,47.936 L94.515,43.251" id="Fill-311" fill="#FFFFFE"></path>
                <path d="M115.873,64.882 C115.873,68.239 113.152,70.963 109.795,70.963 L68.166,70.963 C64.808,70.963 62.085,68.239 62.085,64.882 C62.085,61.525 64.808,58.804 68.166,58.804 L109.795,58.804 C113.152,58.804 115.873,61.525 115.873,64.882" id="Fill-312" fill="#FFFFFE"></path>
                <polyline id="Fill-313" fill="#69A1CA" points="73.38 62.763 72.589 61.649 69.895 63.563 69.895 60.257 68.53 60.257 68.53 63.563 65.836 61.649 65.045 62.763 68.034 64.882 65.045 67.007 65.836 68.118 68.53 66.206 68.53 69.508 69.895 69.508 69.895 66.206 72.589 68.118 73.38 67.007 70.391 64.882 73.38 62.763"></polyline>
                <polyline id="Fill-314" fill="#69A1CA" points="83.209 62.763 82.418 61.649 79.725 63.563 79.725 60.257 78.36 60.257 78.36 63.563 75.665 61.649 74.875 62.763 77.863 64.882 74.875 67.007 75.665 68.118 78.36 66.206 78.36 69.508 79.725 69.508 79.725 66.206 82.418 68.118 83.209 67.007 80.221 64.882 83.209 62.763"></polyline>
                <polyline id="Fill-315" fill="#69A1CA" points="93.039 62.763 92.247 61.649 89.554 63.563 89.554 60.257 88.189 60.257 88.189 63.563 85.495 61.649 84.705 62.763 87.692 64.882 84.705 67.007 85.495 68.118 88.189 66.206 88.189 69.508 89.554 69.508 89.554 66.206 92.247 68.118 93.039 67.007 90.05 64.882 93.039 62.763"></polyline>
                <polyline id="Fill-316" fill="#69A1CA" points="102.867 62.763 102.078 61.649 99.383 63.563 99.383 60.257 98.019 60.257 98.019 63.563 95.324 61.649 94.534 62.763 97.521 64.882 94.534 67.007 95.324 68.118 98.019 66.206 98.019 69.508 99.383 69.508 99.383 66.206 102.078 68.118 102.867 67.007 99.88 64.882 102.867 62.763"></polyline>
                <polyline id="Fill-317" fill="#69A1CA" points="112.697 62.763 111.907 61.649 109.213 63.563 109.213 60.257 107.848 60.257 107.848 63.563 105.153 61.649 104.363 62.763 107.351 64.882 104.363 67.007 105.153 68.118 107.848 66.206 107.848 69.508 109.213 69.508 109.213 66.206 111.907 68.118 112.697 67.007 109.709 64.882 112.697 62.763"></polyline>
                <path d="M39.793,44.99 L32.533,44.99 L32.533,38.21 L33.167,38.21 L33.167,35.64 L32.533,35.64 L32.533,32.799 L39.793,32.799 L39.793,44.99 M39.793,30.229 L32.533,30.229 L32.533,26.009 L39.856,26.009 C39.815,26.197 39.793,26.392 39.793,26.592 L39.793,30.229 M71.286,17.646 L34.185,17.646 C34.97,16.998 35.975,16.609 37.072,16.609 L71.286,16.609 L71.286,17.646" id="Fill-322" fill="#3C72AB"></path>
                <path d="M67.815,44.99 L39.793,44.99 L39.793,32.799 L44.147,32.799 L44.147,30.229 L39.793,30.229 L39.793,26.592 C39.793,26.392 39.815,26.197 39.856,26.009 L71.286,26.009 L71.286,41.519 C71.286,43.437 69.732,44.99 67.815,44.99" id="Fill-323" fill="#2D5192"></path>
                <path d="M39.856,26.009 L32.533,26.009 L32.533,21.147 C32.533,19.737 33.176,18.478 34.185,17.646 L71.286,17.646 L71.286,23.869 L42.516,23.869 C41.218,23.869 40.125,24.789 39.856,26.009" id="Fill-325" fill="#3C72AB"></path>
                <path d="M71.286,26.009 L39.856,26.009 C40.125,24.789 41.218,23.869 42.516,23.869 L71.286,23.869 L71.286,26.009" id="Fill-326" fill="#2D5192"></path>
                <polyline id="Fill-328" fill="#32AEB3" points="32.533 32.799 31.613 32.799 32.533 30.514 32.533 32.799"></polyline>
                <polygon id="Fill-329" fill="#3C72AB" points="32.533 32.799 39.793 32.799 39.793 30.229 32.533 30.229"></polygon>
                <polygon id="Fill-330" fill="#2D5192" points="39.793 32.799 44.147 32.799 44.147 30.229 39.793 30.229"></polygon>
                <polyline id="Fill-332" fill="#32AEB3" points="30.783 38.21 29.433 38.21 30.468 35.64 31.818 35.64 30.783 38.21"></polyline>
                <polygon id="Fill-333" fill="#3C72AB" points="32.533 38.21 33.167 38.21 33.167 35.64 32.533 35.64"></polygon>
                <g id="Group-7">
                    <polyline id="Fill-457" fill="#88CDCE" points="10.5983284 74 10 73.6712185 10.4011799 73 11 73.3287815 10.5983284 74"></polyline>
                    <polyline id="Fill-458" fill="#88CDCE" points="0.891284487 68.5 0 68.0488857 1.10871551 68 2 68.4507549 0.891284487 68.5"></polyline>
                    <polyline id="Fill-483" fill="#88CDCE" points="62.8725702 21.5 62 21.0694543 63.1274298 21 64 21.4305457 62.8725702 21.5"></polyline>
                    <polyline id="Fill-485" fill="#88CDCE" points="28.4714286 1 28 0.525089606 28.525 0 29 0.474910394 28.4714286 1"></polyline>
                    <polyline id="Fill-497" fill="#88CDCE" points="9 12 10.994692 10.6823149 13 10 11.005308 11.3176851 9 12"></polyline>
                    <polyline id="Fill-498" fill="#88CDCE" points="44.0666667 1.5 43 1.31172414 43.9333333 1 45 1.18827586 44.0666667 1.5"></polyline>
                    <polyline id="Fill-511" fill="#88CDCE" points="48.3574661 76 48 75.3474044 48.6425339 75 49 75.6525956 48.3574661 76"></polyline>
                    <polyline id="Fill-513" fill="#88CDCE" points="6.37427746 14 6 13.4084211 6.62572254 13 7 13.5915789 6.37427746 14"></polyline>
                    <polyline id="Fill-523" fill="#88CDCE" points="60.9871087 70.5 60 70.3909451 61.0128913 70 62 70.1087244 60.9871087 70.5"></polyline>
                    <polyline id="Fill-525" fill="#88CDCE" points="16.6247397 65 16 64.8846395 16.3752603 64 17 64.1159875 16.6247397 65"></polyline>
                    <path d="M33.4995044,77 C32.3035361,76.0326995 26.9811468,72.683597 21.4968722,68.000411 L29.8785617,67.6267629 C31.2265039,68.6372144 32.4654213,69.5198476 33.4995044,70.2445875 L33.5160233,70.2324921 L33.5160233,67.4649469 L33.5160233,70.2324921 C34.6227896,69.4547942 35.9641242,68.4959931 37.4243949,67.3936824 L43.8205127,68.1707265 L44.3656364,68.9513664 C39.2976381,73.1350475 34.6095745,76.0997142 33.4995044,77 M44.7488748,68.6326378 L44.4812687,68.2514711 L45.1122906,68.3279659 C44.9900507,68.4299591 44.8711147,68.5319523 44.7488748,68.6326378 M45.6243765,67.8925336 L44.101334,67.7078344 L43.6189821,67.0144771 L46.7906108,66.8732557 C46.4007647,67.2194441 46.0109187,67.5594213 45.6243765,67.8925336 M43.440578,67.6274167 L39.7965088,67.1847926 L43.0309093,67.0406291 L43.440578,67.6274167 M21.004609,67.5760933 C20.0798811,66.7742047 19.1531708,65.9343956 18.2449617,65.063204 L28.0945206,66.2599892 C28.5107969,66.5852558 28.9204656,66.9007154 29.3202229,67.2057142 L21.004609,67.5760933 M38.1908718,66.8104907 C39.1588793,66.0645023 40.1698359,65.2603254 41.1907039,64.4094017 L42.7269616,66.6081389 L38.1908718,66.8104907 M43.3150344,66.5819868 L41.5739424,64.0883847 C44.4680535,61.6428371 47.4051138,58.8272374 49.6516841,55.8740123 L54.8584412,58.1185157 C52.7473258,61.0998543 50.0646566,63.9059739 47.312608,66.4038257 L43.3150344,66.5819868 M27.3511701,65.6725478 L17.6592016,64.4947229 C17.4642786,64.3028319 17.2703467,64.1099602 17.0774059,63.9151271 L20.1499212,59.1547924 C22.4021079,61.5352866 24.9493222,63.7552724 27.3511701,65.6725478 M16.7546266,63.5869183 C13.6193396,60.3734799 10.8398696,56.7919508 9.26396659,53.0665851 L14.5295309,51.2748398 C15.684202,53.8498403 17.5997335,56.4111109 19.8334191,58.8171035 L16.7546266,63.5869183 M55.1194398,57.7448677 L49.9292016,55.5069023 C51.049183,53.9900809 51.9841527,52.4395887 52.6349973,50.887135 C53.7219409,48.2850018 54.8121882,44.5092933 55.7636768,40.2697121 C56.001549,39.2082641 56.2295098,38.1180487 56.4475593,37.0095268 L62.4703499,34.9595296 C61.2942043,41.7842452 59.6158841,48.5602526 57.7624636,52.9878019 C57.0884926,54.6062896 56.1832569,56.1982982 55.1194398,57.7448677 M9.07532076,52.6089235 C7.427065,48.5301776 5.92549706,42.6227467 4.8038638,36.5342125 L10.9994421,39.2056489 C11.0760898,39.5632787 11.1537287,39.9179665 11.232689,40.2697121 C12.174927,44.4749687 13.2559238,48.2232175 14.3332864,50.8194665 L9.07532076,52.6089235 M10.8857921,38.6705116 L4.7077238,36.0065941 C4.44837709,34.5685558 4.21083531,33.1239796 3.99774151,31.6931332 L9.59071042,31.5502774 C9.96304641,33.9585583 10.4021188,36.3674929 10.8857921,38.6705116 M56.556584,36.4505258 C56.9431262,34.4394299 57.2900231,32.3763566 57.5873633,30.3260325 L63.2137004,30.1825229 C63.0220812,31.5764295 62.8040317,32.9899501 62.5661595,34.4054322 L56.556584,36.4505258 M3.92538874,31.201147 C3.66439013,29.4061327 3.4427065,27.6375974 3.26661503,25.9380382 L12.3265705,25.2646218 C11.2987646,26.0142062 10.179444,26.6497021 8.98710984,27.1521491 C9.14073561,28.4407935 9.31814858,29.7487251 9.51571462,31.058618 L3.92538874,31.201147 M57.6600465,29.8304504 C57.7988052,28.8347094 57.9276526,27.8428913 58.0432849,26.8631685 C55.7603731,25.7870099 53.7781051,24.2169036 52.2253286,22.2976669 L60.068502,21.7148021 C61.2644703,22.3382026 62.5925898,22.7514057 64,22.9050492 C63.8414186,25.0305606 63.5969389,27.324753 63.279776,29.6869408 L57.6600465,29.8304504 M3.22168363,25.4944333 C3.13545497,24.6284722 3.06111993,23.7811443 3,22.9593148 C5.75270937,22.8252853 8.24210749,21.6991108 10.110395,19.9351521 L13.2995337,24.4980386 C13.1915001,24.5898978 13.082145,24.6804494 12.9717987,24.7693666 L3.22168363,25.4944333 M13.6755038,24.1685222 L10.4691855,19.5804644 C12.3771183,17.6076159 13.5492994,14.9322567 13.5492994,11.9855696 C13.5492994,11.4991407 13.5169224,11.0202305 13.4541506,10.5508004 L22.5904234,7.76854464 C26.7564898,7.30401808 30.7408483,7 33.4995044,7 C35.1381792,7 37.212953,7.10755048 39.4991686,7.29257654 L49.3279137,13.122205 L48.7068031,14.084602 C48.6968917,14.0025498 48.6869804,13.9204976 48.6770691,13.8377916 C42.8822392,13.0381914 36.9189166,12.4965162 33.5160233,12.4945548 L33.5160233,23.2420843 L33.5160233,12.4945548 L33.4995044,12.4945548 C30.2221548,12.4945548 24.6156404,12.98981 19.0084653,13.7433172 C18.5697233,17.8537724 16.6062869,21.5219304 13.6755038,24.1685222 M51.8949506,21.8753106 C50.3355665,19.8171408 49.2552305,17.388919 48.8059165,14.7570377 L49.7144559,13.3513627 L55.1326549,16.5657819 C56.0478019,18.5314386 57.5278953,20.1849046 59.3714044,21.3195786 L51.8949506,21.8753106 M54.8121882,15.8001793 L49.9820621,12.9352175 L52.6118709,8.86170213 C53.2561079,8.96206078 53.8838261,9.06405395 54.4950254,9.16702781 C54.2538494,10.0666598 54.125002,11.0117311 54.125002,11.9855696 C54.125002,13.3268451 54.3694817,14.6122205 54.8121882,15.8001793 M49.5955199,12.7060598 L40.6323651,7.38868548 C44.3094721,7.71591355 48.4193742,8.21999514 52.1262152,8.78684176 L49.5955199,12.7060598 M13.3768421,10.0578335 C13.3659397,9.99768367 13.3547068,9.93786076 13.3428132,9.87803785 L15.2983205,8.72178843 C16.7612342,8.50178395 18.2819641,8.2919134 19.8086407,8.09936861 L13.3768421,10.0578335 M13.2420479,9.41874171 C13.2126443,9.29811518 13.1815887,9.17846936 13.1482206,9.05947733 C13.4653834,9.00717315 13.7861805,8.95584966 14.1112724,8.90452618 L13.2420479,9.41874171" id="Fill-782" fill="#F58E33"></path>
                    <path d="M13.0980077,10 C13.0684447,9.86655358 13.0356684,9.73423805 13,9.60277071 L13.845437,9.15804354 C14.2255784,9.10489115 14.6108612,9.05202149 15,9 L13.0980077,10" id="Fill-783" fill="#60BDBE"></path>
                    <path d="M17.3240643,64 C17.216264,63.8917214 17.1071369,63.781812 17,63.672555 L20.0910498,58.9138396 C20.1961966,59.0266842 20.3023384,59.1388765 20.408812,59.2507427 L17.3240643,64 M49.1788933,14.9563031 C49.142407,14.7342015 49.1092377,14.510143 49.0793853,14.2854322 L49.7029687,13.3252747 L50.0910498,13.5538992 L49.1788933,14.9563031 M50.3597214,13.1387224 L49.9716402,12.9100979 L52.5124109,9 C52.6749406,9.02478667 52.8374703,9.04957335 53,9.07468616 L50.3597214,13.1387224" id="Fill-784" fill="#60BDBE"></path>
                    <path d="M54.741133,58 L49.5768999,55.7668574 C49.671927,55.6452152 49.7604006,55.523573 49.8521509,55.4016055 L55,57.6282432 C54.9148033,57.7521622 54.8263297,57.8767316 54.741133,58 M11.2403334,39.1828625 L5.09535481,36.5249479 C5.06324219,36.3499653 5.03145726,36.1749826 5,36 L11.1276116,38.6504339 C11.1649671,38.828669 11.2023226,39.0062536 11.2403334,39.1828625" id="Fill-785" fill="#60BDBE"></path>
                    <path d="M3.04426209,26 C3.02929109,25.8393262 3.01432009,25.6793601 3,25.519748 L12.6048725,24.734782 C12.3972313,24.9188137 12.1853591,25.0978907 11.969256,25.2709513 L3.04426209,26 M51.2736624,22.0588901 C51.1630072,21.9084796 51.052352,21.7559456 50.9482059,21.6016421 L58.3132868,21 C58.5345972,21.1511183 58.7656713,21.2940968 59,21.4278737 L51.2736624,22.0588901" id="Fill-786" fill="#60BDBE"></path>
                    <path d="M21.4865001,68 C21.3265101,67.8243243 21.162602,67.6474201 21,67.4684685 L29.2182594,67.0045045 C29.4043702,67.1830467 29.590481,67.3591319 29.7700615,67.531941 L21.4865001,68 M39.571895,66.9782965 L37.7858847,66.7031122 C37.8511867,66.6388206 37.9164888,66.5741196 37.9850559,66.5094185 L42.4680397,66.2559378 L42.768429,66.7977068 L39.571895,66.9782965 M43.349617,66.7649468 L43.0492277,66.2231777 L47,66 C46.8269496,66.1977887 46.6571644,66.3935299 46.484114,66.5880426 L43.349617,66.7649468" id="Fill-787" fill="#60BDBE"></path>
                    <path d="M55,16 L49.454776,12.8802834 L49.728656,12.4763986 L54.6720203,15.2569535 C54.7734573,15.5095005 54.8816568,15.7569711 55,16 M49.0591716,12.6578771 L39,7 C39.3820795,7.02918885 39.7675402,7.06028131 40.1597633,7.0932774 L49.3330516,12.2539923 L49.0591716,12.6578771" id="Fill-788" fill="#32AEB3"></path>
                    <polyline id="Fill-789" fill="#71C3C1" points="49.5909091 14 49 13.6448835 49.4090909 13 50 13.3551165 49.5909091 14"></polyline>
                    <path d="M13.0755164,11 C13.0538941,10.8216426 13.028722,10.6443426 13,10.4684526 L19.2827022,8.35671484 C20.1901893,8.2305252 21.0996127,8.11103278 22,8 L13.0755164,11" id="Fill-790" fill="#32AEB3"></path>
                    <path d="M43.5871886,69 L43,68 L43.7117438,68.1034338 L44,68.5917085 C43.86121,68.7286432 43.7259786,68.8647404 43.5871886,69" id="Fill-791" fill="#32AEB3"></path>
                    <path d="M44,68 L43.3189557,67.9111272 L42.8967083,67.2626445 L43.5028377,67.2337428 L44,68 M42.5834279,66.7846821 L41,64.3547688 C41.1328036,64.2369942 41.262202,64.1192197 41.3950057,64 L43.1895573,66.7557803 L42.5834279,66.7846821" id="Fill-792" fill="#32AEB3"></path>
                    <polyline id="Fill-793" fill="#71C3C1" points="42.3407407 66.5 42 66.0285103 42.6592593 66 43 66.4714897 42.3407407 66.5"></polyline>
                    <path d="M13.578167,24 L10,19.3606329 C10.137522,19.2429702 10.2713372,19.1229808 10.4025577,19 L14,23.6649604 C13.8609953,23.778967 13.7208785,23.8899821 13.578167,24" id="Fill-794" fill="#32AEB3"></path>
                    <path d="M9.18691479,53 C9.17578501,52.9730402 9.16530993,52.9467461 9.15418015,52.9197863 C9.10245942,52.7929754 9.05106604,52.6645003 9,52.5340282 L14.2097179,50.7120785 C14.2192109,50.7350442 14.2283766,50.75801 14.2375423,50.7809757 C14.2912271,50.9121135 14.346876,51.0442498 14.4041616,51.1757204 L9.18691479,53 M55.9375448,36.6513795 C55.9735529,36.4623281 56.009561,36.2722782 56.0455691,36.0822283 L62,34 C61.9705388,34.1880529 61.9378042,34.3761058 61.9050695,34.5641587 L55.9375448,36.6513795" id="Fill-795" fill="#32AEB3"></path>
                    <path d="M4.07192078,32 C4.04761878,31.8360763 4.02364519,31.6731302 4,31.5095323 L9.55694772,31.3674434 C9.58157813,31.5310412 9.60620853,31.6939873 9.63149575,31.8575851 L4.07192078,32 M57.341575,30.6371191 C57.3678474,30.4722177 57.3908358,30.3076422 57.4138242,30.1430666 L63,30 C62.9802957,30.1642496 62.9573073,30.3291511 62.9343189,30.4940525 L57.341575,30.6371191" id="Fill-796" fill="#32AEB3"></path>
                    <path d="M44.4872764,68 L43.8554687,67.9201774 L43.1938898,67.8359202 L36.789807,67.0250725 C36.8394254,66.9872079 36.8857359,66.9490022 36.9353543,66.9107965 L39.1648749,66.8070953 L42.813482,67.2689749 L43.4750608,67.352891 L45,67.5456251 C44.8279895,67.6984479 44.655979,67.8499062 44.4872764,68 M27.4483142,65.8420604 L17.5864896,64.5932117 C17.3896699,64.3967252 17.194835,64.1995565 17,64 L26.704038,65.2290636 C26.9554379,65.4371482 27.20353,65.6411393 27.4483142,65.8420604" id="Fill-797" fill="#32AEB3"></path>
                    <path d="M37,67.488 C37.1246291,67.327 37.2492582,67.1645 37.3768546,67 L39,67.336 L37,67.488" id="Fill-798" fill="#71C3C1"></path>
                    <path d="M32.9838373,70 C31.972052,69.2721231 30.7598491,68.3856696 29.4409725,67.3708444 L33,67.2083279 L33,69.9878523 L32.9838373,70 M28.894673,66.9479732 C28.5035356,66.6416543 28.1027005,66.3248292 27.6954004,65.9981546 L33,66.6597116 L33,66.7601764 L28.894673,66.9479732 M33,66.1600145 L26.9680787,65.4081705 C24.6180214,63.4825964 22.1257324,61.2530015 19.9221092,58.8622035 L27.8279345,46.2893371 L28.5843491,46.6242195 L33,53.1071499 L33,66.1600145 M19.6124318,58.5230529 C17.4269109,56.1066461 15.5526837,53.5342892 14.4229106,50.948143 L27.1781938,46.4925648 L19.6124318,58.5230529 M33,52.2354706 L29.4345074,47.0001415 L33,48.5780289 L33,52.2354706 M14.2308977,50.4907987 C13.1767661,47.8833119 12.1190787,44.1188391 11.1971581,39.8953804 C11.1199003,39.5421122 11.0439356,39.1858892 10.9689407,38.8267113 L27.1361708,45.9830181 L14.2308977,50.4907987 M33,48.0894944 L28.9593239,46.3011565 L28.7201158,45.9534697 L33,44.459303 L33,48.0894944 M27.6598424,45.7262749 L10.8577413,38.2892578 C10.3844973,35.9762707 9.95489259,33.5569091 9.59058522,31.1382041 L17.8933666,30.9208588 L27.8117718,45.4866041 L27.6598424,45.7262749 M28.4324197,45.5299419 L28.3677689,45.4327603 L33,38.0673161 L33,43.9349821 L28.4324197,45.5299419 M28.0962354,45.0335279 L18.4765169,30.9057563 L33,30.5255662 L33,37.2360197 L28.0962354,45.0335279 M9.51720655,30.6444166 C9.3239006,29.3288539 9.15031315,28.015261 9,26.7210388 C10.166624,26.2164169 11.2618089,25.5781704 12.2674524,24.8253415 L13.6703751,24.7183104 L17.5617079,30.4336377 L9.51720655,30.6444166 M18.1448582,30.4185351 L14.2344535,24.6749727 L33,23.2428577 L33,30.0294805 L18.1448582,30.4185351 M12.8987676,24.3279425 C13.0067345,24.2386405 13.1137316,24.147697 13.2194357,24.0554401 L13.3797697,24.2914994 L12.8987676,24.3279425 M13.9438481,24.2481617 L13.5872988,23.7244975 C16.4548859,21.0664501 18.3759849,17.3824147 18.8052663,13.2541676 C24.2915348,12.4973989 29.7771567,12 32.9838373,12 L33,12 L33,22.7940496 L13.9438481,24.2481617" id="Fill-799" fill="#23A5AC"></path>
                    <path d="M20.323844,58 C20.2153326,57.8906482 20.1071592,57.7809777 20,57.6706695 L27.9118677,45.9885228 L28.5609079,45.7781084 L28.5913316,45.7911796 L20.323844,58 M28.513582,45.2845909 L28.4155499,45.2444208 L28.5744296,45.0116897 L28.7231679,45.2163656 L28.513582,45.2845909 M29.1558614,44.9594049 L28.8719063,44.5717322 L34,37 L34,37.8072264 L29.1558614,44.9594049" id="Fill-800" fill="#60BDBE"></path>
                    <path d="M33,49 L29.4574148,47.4663986 L28.9852842,46.7870317 L33,48.5251771 L33,49 M28.6127186,47.1010275 L27.8611638,46.7755441 L27.8322579,46.7624609 L28.2722707,46.611845 L28.6127186,47.1010275 M27.1738445,46.4778225 L11.110485,39.522369 C11.0732284,39.3490969 11.0366142,39.1748676 11,39 L27.6941517,46.2282851 L27.7872931,46.2684919 L27.1738445,46.4778225" id="Fill-801" fill="#60BDBE"></path>
                    <path d="M12,25 C12.2174096,24.8419266 12.4305627,24.6783578 12.6394593,24.5102635 L13.1266664,24.4743818 L13.4210206,24.8946177 L12,25 M13.9923757,24.8519476 L13.6980214,24.4317117 L33,23 L33,23.4418943 L13.9923757,24.8519476" id="Fill-802" fill="#60BDBE"></path>
                    <path d="M29.5322835,68 C29.3590551,67.7731183 29.1795276,67.5419355 29,67.3075269 L33,67 L33,67.733871 L29.5322835,68" id="Fill-803" fill="#60BDBE"></path>
                    <path d="M34,53 L29.1867512,46.6563404 L30.1134602,47.0241865 L34,52.1470467 L34,53 M29.5954898,46.3402175 L29,46.1047317 L29.3347428,46 L29.5954898,46.3402175" id="Fill-804" fill="#32AEB3"></path>
                    <polyline id="Fill-805" fill="#71C3C1" points="29 47 28.2872629 46.5999301 28 46.0642907 28.1436314 46 28.601626 46.2561146 29 47"></polyline>
                    <path d="M28.8313039,46 L28.9325215,45.8426738 L29,45.9419671 L28.8313039,46 M28.3522069,45.8976876 L18,31.0154307 L18.6086556,31 L28.649112,45.4347661 L28.3522069,45.8976876" id="Fill-806" fill="#32AEB3"></path>
                    <polyline id="Fill-807" fill="#71C3C1" points="28.255814 46 28 45.6824926 28.5116279 45 29 45.6013848 28.8255814 45.8333333 28.255814 46"></polyline>
                    <path d="M17.40802,31 L13.4577673,25.0368975 L14.0303866,24.9916809 L18,30.9842427 L17.40802,31 M13.1627617,24.5915831 L13,24.3452899 C13.1263372,24.231906 13.2503774,24.1174945 13.3734331,24 L13.735381,24.5463665 L13.1627617,24.5915831" id="Fill-808" fill="#32AEB3"></path>
                    <polyline id="Fill-809" fill="#71C3C1" points="13.3400151 25.5 13 25.0460894 13.6599849 25 14 25.4539106 13.3400151 25.5"></polyline>
                    <path d="M14.1943751,51 C14.1371097,50.8705585 14.0814805,50.7404616 14.0278146,50.6113478 C14.0186522,50.5887365 14.0094897,50.5661252 14,50.5435139 L27.0640339,46.0441927 L27.351997,46.1693741 L27.1065739,46.5527831 L14.1943751,51 M28.3565954,46.1215299 L28.0064585,45.9688217 L28.2126139,45.6486588 L28.3762293,45.5919667 L33,44 L33,44.5233369 L28.6674647,46.0146997 L28.3565954,46.1215299" id="Fill-810" fill="#32AEB3"></path>
                    <path d="M27,47 L27.2218935,46.5759333 L27.5680473,46.7607829 L27,47 M27.8136095,46.3541138 L27.5266272,46.19971 L27.7100592,46.1221457 L28,46 L27.8136095,46.3541138" id="Fill-811" fill="#71C3C1"></path>
                    <polyline id="Fill-812" fill="#71C3C1" points="27.5189873 47 27.2227848 46.6705426 27 46.4237726 27.4835443 46 27.7291139 46.2751938 28 46.5762274 27.8658228 46.6950904 27.5189873 47"></polyline>
                    <path d="M9.07499484,31 C9.04955606,30.8513473 9.02477803,30.7032869 9,30.5546343 L17.2216808,30.3645247 L17.817675,30.3509032 L33,30 L33,30.4474386 L18.1566384,30.7903465 L17.5606442,30.803968 L9.07499484,31" id="Fill-813" fill="#32AEB3"></path>
                    <path d="M33,66 L27.7234727,65.4714061 C27.4855305,65.316894 27.244373,65.160021 27,65 L33,65.6007345 L33,66" id="Fill-814" fill="#32AEB3"></path>
                    <path d="M33,70 L33,67.2198933 L36.2165948,67.0724485 L36.8243534,67.1483054 C35.3954741,68.2556193 34.0829741,69.2187723 33,70 M33,66.7716479 L33,66.6711621 L33.5883621,66.7447204 L33,66.7716479 M36.5172414,66.6107393 L33,66.1713603 L33,53.1157613 L40.5096983,64.1504796 C39.5107759,65.0052655 38.5215517,65.8130924 37.5743534,66.5624667 L36.5172414,66.6107393 M40.8846983,63.8280056 L33,52.2438994 L33,48.5856915 L48.7887931,55.5763495 C46.5905172,58.5429788 43.7165948,61.371358 40.8846983,63.8280056 M49.0603448,55.2075732 L33,48.0970547 L33,44.4661028 L55.4385776,36.6262414 C55.2252155,37.7397946 55.0021552,38.8349583 54.7693966,39.9012241 C53.8383621,44.160048 52.7715517,47.9528938 51.7079741,50.5668377 C51.0711207,52.1263376 50.15625,53.6838672 49.0603448,55.2075732 M33,43.941672 L33,38.0727769 L37.8200431,30.4030189 L56.5538793,29.9124118 C56.262931,31.972042 55.9234914,34.0444792 55.5452586,36.0647032 L33,43.941672 M33,37.2413063 L33,30.5294471 L37.2898707,30.416811 L33,37.2413063 M33,30.0332575 L33,23.2452129 L42.2424569,22.5398421 L37.606681,29.9127402 L33,30.0332575 M38.1368534,29.8986197 L42.7920259,22.4978089 L51.3071121,21.8476068 C52.8265086,23.7755546 54.7661638,25.3527873 57,26.4338304 C56.8868534,27.418 56.7607759,28.4143198 56.625,29.4145803 L38.1368534,29.8986197 M33,22.7963108 L33,12 C36.3297414,12.0019703 42.1648707,12.5461041 47.8351293,13.3493336 C47.8448276,13.432415 47.8545259,13.5148396 47.8642241,13.5972642 L42.5398707,22.067953 L33,22.7963108 M43.0862069,22.0262481 L47.9612069,14.272752 C48.4008621,16.9165789 49.4579741,19.355822 50.9838362,21.4233334 L43.0862069,22.0262481" id="Fill-815" fill="#23A5AC"></path>
                    <path d="M33,38 L33,37.1846833 L37.3009939,30.492775 L37.8325411,30.4792508 L33,38 M37.6186258,29.9984973 L42.2664218,22.7688406 L42.8174157,22.727624 L38.1501729,29.9846511 L37.6186258,29.9984973 M42.5646067,22.3061194 L47.9027658,14 C47.931936,14.2218615 47.9643475,14.4430789 48,14.6623643 L43.1123596,22.2652248 L42.5646067,22.3061194" id="Fill-816" fill="#60BDBE"></path>
                    <path d="M48.7294686,55 L33,48.4573235 L33,48 L49,54.654856 C48.9098229,54.7701089 48.8228663,54.8850544 48.7294686,55" id="Fill-817" fill="#60BDBE"></path>
                    <path d="M33,24 L33,23.5072098 L43.4679498,22.6618601 L51.6644888,22 C51.7718524,22.1571738 51.8859262,22.3125451 52,22.4657534 L43.1626346,23.1795242 L42.5922656,23.2256669 L33,24" id="Fill-818" fill="#60BDBE"></path>
                    <path d="M33,68 L33,67.3181818 L33.6431095,67.2772228 L36.5159011,67.7757243 L33,68 M37.7844523,67.2362637 L36.844523,67.0734266 L38,67 C37.9257951,67.0789211 37.8551237,67.1578422 37.7844523,67.2362637" id="Fill-819" fill="#60BDBE"></path>
                    <path d="M40.6195162,64 L33,52.8787026 L33,52 L41,63.6749959 C40.8720787,63.7842131 40.7474375,63.8921066 40.6195162,64" id="Fill-820" fill="#32AEB3"></path>
                    <path d="M33,44 L33,43.5006254 L56,36 C55.9637224,36.1785491 55.9274448,36.3570982 55.8911672,36.5347092 L33,44" id="Fill-821" fill="#32AEB3"></path>
                    <path d="M33,31 L33,30.5549337 L37.679803,30.4468336 L37.3579639,30.8989691 L33,31 M37.8965517,30.8865979 L38.2183908,30.4341679 L57,30 C56.9770115,30.1487482 56.954023,30.2974963 56.9277504,30.446539 L37.8965517,30.8865979" id="Fill-822" fill="#32AEB3"></path>
                    <polyline id="Fill-823" fill="#71C3C1" points="38 31 38.3740458 30.0272497 39 30 38.6259542 30.973384 38 31"></polyline>
                    <path d="M36.8565607,67 L36.2436838,66.9223529 L37,66.887395 C36.9511002,66.925042 36.9054605,66.9626891 36.8565607,67 M33.593317,66.5868908 L33,66.5115966 L33,66 L36.5468623,66.4497479 L33.593317,66.5868908" id="Fill-824" fill="#32AEB3"></path>
                    <path d="M36.774744,67.5 L34,67.1450925 L37.0921502,67 L38,67.1159317 C37.8532423,67.2329303 37.7098976,67.3485064 37.5665529,67.4630156 L36.774744,67.5" id="Fill-825" fill="#71C3C1"></path>
                    <path d="M52.125109,9.98561621 C52.125109,9.01144165 52.253955,8.06636156 52.4951283,7.16672115 C45.6464669,6.01144165 36.5281333,5 31.4965311,5 C26.6235086,5 17.9131874,5.94932985 11.148441,7.05916966 C11.4077849,7.99084668 11.5491852,8.97155933 11.5491852,9.98561621 C11.5491852,15.8698921 6.87471769,20.6730958 1,20.9594639 C1.72318958,30.6659039 4.25187528,43.8646617 7.2308613,50.9875776 C12.1666549,62.7907813 29.2334664,73.1683557 31.4965311,75 C33.7595958,73.1683557 50.8300413,62.7907813 55.7625312,50.9875776 C58.7491158,43.8515855 61.2797838,30.6155606 62,20.9051978 C56.4464062,20.2981366 52.125109,15.6413861 52.125109,9.98561621" id="Fill-826" fill="#2364AA"></path>
                    <path d="M30.9838353,11 C27.7799989,11 22.2937119,11.4974018 16.8064551,12.2541747 C16.1760332,18.312955 12.3333693,23.4137033 7,25.7214505 C7.5098335,30.1140169 8.28767714,34.727213 9.19710114,38.8955383 C10.1272159,43.1557925 11.1953769,46.9488503 12.2586885,49.5589784 C15.4751334,57.4527279 25.8305404,65.290335 30.9838353,69 L31,68.9881806 L31,11 L30.9838353,11" id="Fill-827" fill="#69A1CA"></path>
                    <path d="M46.8383621,12.3493336 C41.1648707,11.5461041 35.3329741,11.0022987 32,11 L32,69 C37.1594828,65.2833396 47.4946121,57.4526729 50.7079741,49.5668377 C51.7747845,46.9528938 52.8415948,43.160048 53.7726293,38.9012241 C54.700431,34.6407582 55.4924569,29.913329 56,25.4341588 C51.0053879,23.0136336 47.4719828,18.1069063 46.8383621,12.3493336" id="Fill-828" fill="#247BA0"></path>
                    <path d="M24.3576913,37.0274523 L30.7447831,45.3319481 C31.0680966,45.7549591 31.5629643,46 32.0941222,46 C32.6285793,46 33.1234469,45.7549591 33.4467604,45.3322802 L44.6406666,30.7745929 C45.2213113,30.0228685 45.0827484,28.9420987 44.3371478,28.3600436 C43.5882481,27.7783204 42.5160348,27.9161144 41.9386893,28.6678388 L32.0941222,41.4664113 L27.0629678,34.9206982 C26.4856222,34.1689738 25.4101099,34.0311798 24.6645093,34.6129029 C23.9156096,35.194626 23.7803457,36.2757279 24.3576913,37.0274523" id="Fill-829" fill="#FFFFFE"></path>
                </g>
            </g>
        </g>
    </g>
</svg>